<?xml version='1.0' encoding='UTF-8'?>
<svg width="41mm" height="41mm" version="1.1" viewBox="0 0 41 41" xmlns="http://www.w3.org/2000/svg"><path d="M4,4H5V5H4zM5,4H6V5H5zM6,4H7V5H6zM7,4H8V5H7zM8,4H9V5H8zM9,4H10V5H9zM10,4H11V5H10zM12,4H13V5H12zM13,4H14V5H13zM17,4H18V5H17zM18,4H19V5H18zM21,4H22V5H21zM22,4H23V5H22zM26,4H27V5H26zM30,4H31V5H30zM31,4H32V5H31zM32,4H33V5H32zM33,4H34V5H33zM34,4H35V5H34zM35,4H36V5H35zM36,4H37V5H36zM4,5H5V6H4zM10,5H11V6H10zM13,5H14V6H13zM14,5H15V6H14zM16,5H17V6H16zM20,5H21V6H20zM25,5H26V6H25zM26,5H27V6H26zM30,5H31V6H30zM36,5H37V6H36zM4,6H5V7H4zM6,6H7V7H6zM7,6H8V7H7zM8,6H9V7H8zM10,6H11V7H10zM12,6H13V7H12zM13,6H14V7H13zM15,6H16V7H15zM17,6H18V7H17zM19,6H20V7H19zM21,6H22V7H21zM23,6H24V7H23zM25,6H26V7H25zM26,6H27V7H26zM27,6H28V7H27zM30,6H31V7H30zM32,6H33V7H32zM33,6H34V7H33zM34,6H35V7H34zM36,6H37V7H36zM4,7H5V8H4zM6,7H7V8H6zM7,7H8V8H7zM8,7H9V8H8zM10,7H11V8H10zM14,7H15V8H14zM15,7H16V8H15zM16,7H17V8H16zM23,7H24V8H23zM25,7H26V8H25zM26,7H27V8H26zM27,7H28V8H27zM30,7H31V8H30zM32,7H33V8H32zM33,7H34V8H33zM34,7H35V8H34zM36,7H37V8H36zM4,8H5V9H4zM6,8H7V9H6zM7,8H8V9H7zM8,8H9V9H8zM10,8H11V9H10zM15,8H16V9H15zM19,8H20V9H19zM23,8H24V9H23zM25,8H26V9H25zM26,8H27V9H26zM28,8H29V9H28zM30,8H31V9H30zM32,8H33V9H32zM33,8H34V9H33zM34,8H35V9H34zM36,8H37V9H36zM4,9H5V10H4zM10,9H11V10H10zM12,9H13V10H12zM14,9H15V10H14zM15,9H16V10H15zM17,9H18V10H17zM18,9H19V10H18zM19,9H20V10H19zM21,9H22V10H21zM22,9H23V10H22zM23,9H24V10H23zM26,9H27V10H26zM30,9H31V10H30zM36,9H37V10H36zM4,10H5V11H4zM5,10H6V11H5zM6,10H7V11H6zM7,10H8V11H7zM8,10H9V11H8zM9,10H10V11H9zM10,10H11V11H10zM12,10H13V11H12zM14,10H15V11H14zM16,10H17V11H16zM18,10H19V11H18zM20,10H21V11H20zM22,10H23V11H22zM24,10H25V11H24zM26,10H27V11H26zM28,10H29V11H28zM30,10H31V11H30zM31,10H32V11H31zM32,10H33V11H32zM33,10H34V11H33zM34,10H35V11H34zM35,10H36V11H35zM36,10H37V11H36zM15,11H16V12H15zM16,11H17V12H16zM19,11H20V12H19zM20,11H21V12H20zM22,11H23V12H22zM23,11H24V12H23zM24,11H25V12H24zM26,11H27V12H26zM27,11H28V12H27zM4,12H5V13H4zM6,12H7V13H6zM10,12H11V13H10zM11,12H12V13H11zM13,12H14V13H13zM15,12H16V13H15zM16,12H17V13H16zM20,12H21V13H20zM24,12H25V13H24zM27,12H28V13H27zM28,12H29V13H28zM31,12H32V13H31zM34,12H35V13H34zM36,12H37V13H36zM5,13H6V14H5zM6,13H7V14H6zM9,13H10V14H9zM11,13H12V14H11zM14,13H15V14H14zM15,13H16V14H15zM17,13H18V14H17zM19,13H20V14H19zM20,13H21V14H20zM21,13H22V14H21zM22,13H23V14H22zM23,13H24V14H23zM24,13H25V14H24zM25,13H26V14H25zM27,13H28V14H27zM28,13H29V14H28zM30,13H31V14H30zM33,13H34V14H33zM36,13H37V14H36zM4,14H5V15H4zM7,14H8V15H7zM10,14H11V15H10zM11,14H12V15H11zM13,14H14V15H13zM14,14H15V15H14zM19,14H20V15H19zM20,14H21V15H20zM23,14H24V15H23zM25,14H26V15H25zM26,14H27V15H26zM27,14H28V15H27zM29,14H30V15H29zM30,14H31V15H30zM33,14H34V15H33zM34,14H35V15H34zM35,14H36V15H35zM36,14H37V15H36zM4,15H5V16H4zM6,15H7V16H6zM7,15H8V16H7zM8,15H9V16H8zM11,15H12V16H11zM12,15H13V16H12zM16,15H17V16H16zM17,15H18V16H17zM19,15H20V16H19zM21,15H22V16H21zM23,15H24V16H23zM28,15H29V16H28zM31,15H32V16H31zM32,15H33V16H32zM33,15H34V16H33zM36,15H37V16H36zM4,16H5V17H4zM9,16H10V17H9zM10,16H11V17H10zM11,16H12V17H11zM13,16H14V17H13zM15,16H16V17H15zM16,16H17V17H16zM17,16H18V17H17zM19,16H20V17H19zM21,16H22V17H21zM23,16H24V17H23zM27,16H28V17H27zM30,16H31V17H30zM35,16H36V17H35zM36,16H37V17H36zM6,17H7V18H6zM11,17H12V18H11zM12,17H13V18H12zM14,17H15V18H14zM15,17H16V18H15zM16,17H17V18H16zM26,17H27V18H26zM27,17H28V18H27zM28,17H29V18H28zM30,17H31V18H30zM31,17H32V18H31zM33,17H34V18H33zM34,17H35V18H34zM35,17H36V18H35zM36,17H37V18H36zM8,18H9V19H8zM10,18H11V19H10zM14,18H15V19H14zM15,18H16V19H15zM17,18H18V19H17zM18,18H19V19H18zM19,18H20V19H19zM21,18H22V19H21zM23,18H24V19H23zM25,18H26V19H25zM26,18H27V19H26zM27,18H28V19H27zM33,18H34V19H33zM36,18H37V19H36zM4,19H5V20H4zM5,19H6V20H5zM6,19H7V20H6zM7,19H8V20H7zM9,19H10V20H9zM11,19H12V20H11zM13,19H14V20H13zM14,19H15V20H14zM15,19H16V20H15zM16,19H17V20H16zM22,19H23V20H22zM26,19H27V20H26zM28,19H29V20H28zM29,19H30V20H29zM30,19H31V20H30zM31,19H32V20H31zM32,19H33V20H32zM33,19H34V20H33zM5,20H6V21H5zM7,20H8V21H7zM8,20H9V21H8zM10,20H11V21H10zM11,20H12V21H11zM12,20H13V21H12zM13,20H14V21H13zM16,20H17V21H16zM17,20H18V21H17zM18,20H19V21H18zM19,20H20V21H19zM23,20H24V21H23zM24,20H25V21H24zM27,20H28V21H27zM30,20H31V21H30zM31,20H32V21H31zM33,20H34V21H33zM35,20H36V21H35zM4,21H5V22H4zM6,21H7V22H6zM7,21H8V22H7zM8,21H9V22H8zM12,21H13V22H12zM14,21H15V22H14zM16,21H17V22H16zM18,21H19V22H18zM19,21H20V22H19zM20,21H21V22H20zM23,21H24V22H23zM24,21H25V22H24zM27,21H28V22H27zM28,21H29V22H28zM29,21H30V22H29zM30,21H31V22H30zM33,21H34V22H33zM35,21H36V22H35zM36,21H37V22H36zM4,22H5V23H4zM8,22H9V23H8zM9,22H10V23H9zM10,22H11V23H10zM13,22H14V23H13zM15,22H16V23H15zM17,22H18V23H17zM18,22H19V23H18zM19,22H20V23H19zM20,22H21V23H20zM21,22H22V23H21zM22,22H23V23H22zM23,22H24V23H23zM25,22H26V23H25zM27,22H28V23H27zM28,22H29V23H28zM31,22H32V23H31zM33,22H34V23H33zM34,22H35V23H34zM36,22H37V23H36zM5,23H6V24H5zM6,23H7V24H6zM8,23H9V24H8zM9,23H10V24H9zM11,23H12V24H11zM12,23H13V24H12zM14,23H15V24H14zM15,23H16V24H15zM17,23H18V24H17zM19,23H20V24H19zM20,23H21V24H20zM22,23H23V24H22zM24,23H25V24H24zM27,23H28V24H27zM32,23H33V24H32zM33,23H34V24H33zM35,23H36V24H35zM4,24H5V25H4zM5,24H6V25H5zM7,24H8V25H7zM8,24H9V25H8zM10,24H11V25H10zM11,24H12V25H11zM12,24H13V25H12zM15,24H16V25H15zM17,24H18V25H17zM20,24H21V25H20zM21,24H22V25H21zM22,24H23V25H22zM24,24H25V25H24zM28,24H29V25H28zM30,24H31V25H30zM31,24H32V25H31zM36,24H37V25H36zM5,25H6V26H5zM8,25H9V26H8zM12,25H13V26H12zM14,25H15V26H14zM20,25H21V26H20zM22,25H23V26H22zM24,25H25V26H24zM27,25H28V26H27zM28,25H29V26H28zM30,25H31V26H30zM36,25H37V26H36zM4,26H5V27H4zM5,26H6V27H5zM7,26H8V27H7zM8,26H9V27H8zM10,26H11V27H10zM11,26H12V27H11zM15,26H16V27H15zM16,26H17V27H16zM17,26H18V27H17zM18,26H19V27H18zM20,26H21V27H20zM21,26H22V27H21zM24,26H25V27H24zM27,26H28V27H27zM29,26H30V27H29zM30,26H31V27H30zM32,26H33V27H32zM36,26H37V27H36zM6,27H7V28H6zM8,27H9V28H8zM11,27H12V28H11zM12,27H13V28H12zM14,27H15V28H14zM19,27H20V28H19zM20,27H21V28H20zM23,27H24V28H23zM24,27H25V28H24zM26,27H27V28H26zM29,27H30V28H29zM30,27H31V28H30zM31,27H32V28H31zM32,27H33V28H32zM33,27H34V28H33zM35,27H36V28H35zM4,28H5V29H4zM5,28H6V29H5zM6,28H7V29H6zM10,28H11V29H10zM11,28H12V29H11zM15,28H16V29H15zM16,28H17V29H16zM17,28H18V29H17zM18,28H19V29H18zM20,28H21V29H20zM22,28H23V29H22zM24,28H25V29H24zM28,28H29V29H28zM29,28H30V29H29zM30,28H31V29H30zM31,28H32V29H31zM32,28H33V29H32zM33,28H34V29H33zM35,28H36V29H35zM36,28H37V29H36zM12,29H13V30H12zM13,29H14V30H13zM14,29H15V30H14zM15,29H16V30H15zM17,29H18V30H17zM18,29H19V30H18zM19,29H20V30H19zM20,29H21V30H20zM21,29H22V30H21zM23,29H24V30H23zM25,29H26V30H25zM26,29H27V30H26zM27,29H28V30H27zM28,29H29V30H28zM32,29H33V30H32zM36,29H37V30H36zM4,30H5V31H4zM5,30H6V31H5zM6,30H7V31H6zM7,30H8V31H7zM8,30H9V31H8zM9,30H10V31H9zM10,30H11V31H10zM12,30H13V31H12zM15,30H16V31H15zM16,30H17V31H16zM19,30H20V31H19zM23,30H24V31H23zM25,30H26V31H25zM28,30H29V31H28zM30,30H31V31H30zM32,30H33V31H32zM33,30H34V31H33zM34,30H35V31H34zM36,30H37V31H36zM4,31H5V32H4zM10,31H11V32H10zM13,31H14V32H13zM14,31H15V32H14zM17,31H18V32H17zM18,31H19V32H18zM19,31H20V32H19zM20,31H21V32H20zM21,31H22V32H21zM24,31H25V32H24zM26,31H27V32H26zM27,31H28V32H27zM28,31H29V32H28zM32,31H33V32H32zM33,31H34V32H33zM4,32H5V33H4zM6,32H7V33H6zM7,32H8V33H7zM8,32H9V33H8zM10,32H11V33H10zM13,32H14V33H13zM14,32H15V33H14zM16,32H17V33H16zM18,32H19V33H18zM21,32H22V33H21zM23,32H24V33H23zM24,32H25V33H24zM27,32H28V33H27zM28,32H29V33H28zM29,32H30V33H29zM30,32H31V33H30zM31,32H32V33H31zM32,32H33V33H32zM36,32H37V33H36zM4,33H5V34H4zM6,33H7V34H6zM7,33H8V34H7zM8,33H9V34H8zM10,33H11V34H10zM13,33H14V34H13zM14,33H15V34H14zM21,33H22V34H21zM27,33H28V34H27zM29,33H30V34H29zM31,33H32V34H31zM32,33H33V34H32zM33,33H34V34H33zM34,33H35V34H34zM35,33H36V34H35zM36,33H37V34H36zM4,34H5V35H4zM6,34H7V35H6zM7,34H8V35H7zM8,34H9V35H8zM10,34H11V35H10zM12,34H13V35H12zM14,34H15V35H14zM18,34H19V35H18zM19,34H20V35H19zM23,34H24V35H23zM24,34H25V35H24zM25,34H26V35H25zM28,34H29V35H28zM31,34H32V35H31zM32,34H33V35H32zM35,34H36V35H35zM36,34H37V35H36zM4,35H5V36H4zM10,35H11V36H10zM17,35H18V36H17zM24,35H25V36H24zM26,35H27V36H26zM27,35H28V36H27zM28,35H29V36H28zM31,35H32V36H31zM32,35H33V36H32zM33,35H34V36H33zM4,36H5V37H4zM5,36H6V37H5zM6,36H7V37H6zM7,36H8V37H7zM8,36H9V37H8zM9,36H10V37H9zM10,36H11V37H10zM12,36H13V37H12zM13,36H14V37H13zM14,36H15V37H14zM19,36H20V37H19zM20,36H21V37H20zM24,36H25V37H24zM28,36H29V37H28zM30,36H31V37H30zM31,36H32V37H31zM32,36H33V37H32zM33,36H34V37H33zM36,36H37V37H36z" id="qr-path" fill="#000000" fill-opacity="1" fill-rule="nonzero" stroke="none" /></svg>